# xmcd CD database file
# Copyright (C) 1996 Ti Kan
#
# Track frame offsets:
# 	225
# 	13900
# 	26242
# 	35910
# 	45520
# 	57097
# 	71965
# 	85550
# 	97395
# 	107295
# 	118010
# 	130100
#
# Disc length: 1936 seconds
#
# Revision: 1
# Processed by: cddbd v1.4b41PL1 Copyright (c) Steve Scherf et al.
# Submitted via: DiscPlay 3.4.1
#
DISCID=a6078d0c
DTITLE=Leon Redbone - Red To Blue
DYEAR=1900
DGENRE=
TTITLE0=Diamonds Dont Mean A Thing
TTITLE1=Lovesick Blues
TTITLE2=Reaching For Someone And Not Finding Anybody There
TTITLE3=Somebody Stole My Gal
TTITLE4=Steal Away Blues
TTITLE5=Aw You Salty Dog
TTITLE6=Border Of The Quarter
TTITLE7=Somebody Sweetheart
TTITLE8=Whose Honey Are You?
TTITLE9=Living The Blues
TTITLE10=Nobody Cares If I'm Blue
TTITLE11=Think Of Me Thinking Of You
EXTD=
EXTT0=
EXTT1=
EXTT2=
EXTT3=
EXTT4=
EXTT5=
EXTT6=
EXTT7=
EXTT8=
EXTT9=
EXTT10=
EXTT11=
PLAYORDER=
